<svg id="Capa_1" data-name="Capa 1" xmlns="http://www.w3.org/2000/svg" viewBox="0 0 640 480"><defs><style>.cls-1,.cls-2{isolation:isolate;}.cls-2{font-size:91px;font-family:Arial-BoldMT, Arial;font-weight:700;}.cls-2,.cls-4{fill:#fff;}.cls-3{letter-spacing:-0.02em;}</style></defs><g class="cls-1"><text class="cls-2" transform="translate(323.5 275.5)">FO<tspan class="cls-3" x="126.37" y="0">T</tspan><tspan x="180.31" y="0">OS</tspan></text></g><g id="Uploaded_to_svgrepo.com" data-name="Uploaded to svgrepo.com"><path class="cls-4" d="M197,240.82c0,17.07-14.11,30.95-31.45,30.95s-31.45-13.88-31.45-30.95,14.11-30.95,31.45-30.95S197,223.76,197,240.82ZM90.06,209.87h18.87V197.49H90.06Zm119.51,30.95c0,23.9-19.75,43.33-44,43.33s-44-19.43-44-43.33,19.75-43.33,44-43.33S209.57,216.93,209.57,240.82Zm-6.29,0c0-20.51-16.89-37.14-37.74-37.14s-37.74,16.63-37.74,37.14S144.69,278,165.54,278,203.28,261.34,203.28,240.82Zm56.61-43.33v92.85A18.72,18.72,0,0,1,241,308.91h-151a18.72,18.72,0,0,1-18.87-18.57V197.49a18.73,18.73,0,0,1,18.87-18.57h31.45l7.37-14.49a18.9,18.9,0,0,1,16.87-10.27h39.58a18.9,18.9,0,0,1,16.87,10.27l7.37,14.49H241A18.73,18.73,0,0,1,259.89,197.49ZM115.22,209.87V197.49a6.25,6.25,0,0,0-6.29-6.19H90.06a6.25,6.25,0,0,0-6.29,6.19v12.38a6.24,6.24,0,0,0,6.29,6.19h18.87A6.24,6.24,0,0,0,115.22,209.87Zm100.64,30.95c0-27.34-22.53-49.52-50.32-49.52s-50.32,22.18-50.32,49.52,22.53,49.52,50.32,49.52S215.86,268.17,215.86,240.82Z"/></g></svg>