<?xml version="1.0" encoding="utf-8"?>
<!-- Generator: Adobe Illustrator 25.2.1, SVG Export Plug-In . SVG Version: 6.00 Build 0)  -->
<svg version="1.1" id="Capa_1" xmlns="http://www.w3.org/2000/svg" xmlns:xlink="http://www.w3.org/1999/xlink" x="0px" y="0px"
	 viewBox="0 0 640 480" style="enable-background:new 0 0 640 480;" xml:space="preserve">
<style type="text/css">
	.st0{font-family:'Arial-BoldMT';}
	.st1{font-size:89.9233px;}
</style>
<desc>Created with Fabric.js 3.6.6</desc>
<g transform="matrix(1 0 0 1 431 225.91)">
	<text transform="matrix(0.5115 0 0 1 -161.1675 14.09)" class="st0 st1">ESTADISTICAS</text>
</g>
<g transform="matrix(0.54 0 0 0.54 144.25 225.25)">
	<g>
		<g id="XMLID_502_" transform="matrix(1 0 0 1 0 0)">
			<path d="M-160-140.5V90.6H19.4l83.1,49.9l3.3-49.9H160v-231.1H-160z M140,70.6H87.1l-2.4,35.9L25,70.6h-165v-191.1h280V70.6z"/>
		</g>
		<g id="XMLID_1_" transform="matrix(1 0 0 1 -80 -26.54)">
			<rect x="-20" y="-10" width="40" height="20"/>
		</g>
		<g id="XMLID_2_" transform="matrix(1 0 0 1 0 -26.54)">
			<rect x="-20" y="-10" width="40" height="20"/>
		</g>
		<g id="XMLID_3_" transform="matrix(1 0 0 1 80 -26.54)">
			<rect x="-20" y="-10" width="40" height="20"/>
		</g>
	</g>
</g>
</svg>
