<?xml version="1.0" encoding="UTF-8" standalone="no" ?>
<!DOCTYPE svg PUBLIC "-//W3C//DTD SVG 1.1//EN" "http://www.w3.org/Graphics/SVG/1.1/DTD/svg11.dtd">
<svg xmlns="http://www.w3.org/2000/svg" xmlns:xlink="http://www.w3.org/1999/xlink" version="1.1" width="640" height="480" viewBox="0 0 640 480" xml:space="preserve">
<desc>Created with Fabric.js 3.6.6</desc>
<defs>
</defs>
<g transform="matrix(1 0 0 1 452.84 246.91)" style=""  >
		<text xml:space="preserve" font-family="'Open Sans', sans-serif" font-size="18" font-style="normal" font-weight="normal" style="stroke: none; stroke-width: 1; stroke-dasharray: none; stroke-linecap: butt; stroke-dashoffset: 0; stroke-linejoin: miter; stroke-miterlimit: 4; fill: rgb(0,0,0); fill-rule: nonzero; opacity: 1; white-space: pre;" ><tspan x="-129.34" y="28.59" style="stroke-width: 1; font-family: 'Oswald', sans-serif; font-size: 91px; font-style: normal; font-weight: bold; fill: rgb(0,0,0); ">FOTOS</tspan></text>
</g>
<g transform="matrix(6.29 0 0 6.19 165.54 231.54)" id="Uploaded to svgrepo.com"  >
<path style="stroke: none; stroke-width: 1; stroke-dasharray: none; stroke-linecap: butt; stroke-dashoffset: 0; stroke-linejoin: miter; stroke-miterlimit: 4; fill: rgb(11,23,25); fill-rule: nonzero; opacity: 1;"  transform=" translate(-16, -15.5)" d="M 21 17 c 0 2.757 -2.243 5 -5 5 s -5 -2.243 -5 -5 s 2.243 -5 5 -5 S 21 14.243 21 17 z M 4 12 h 3 v -2 H 4 V 12 z M 23 17 c 0 3.86 -3.14 7 -7 7 s -7 -3.14 -7 -7 s 3.14 -7 7 -7 S 23 13.14 23 17 z M 22 17 c 0 -3.314 -2.686 -6 -6 -6 s -6 2.686 -6 6 s 2.686 6 6 6 S 22 20.314 22 17 z M 31 10 v 15 c 0 1.657 -1.343 3 -3 3 H 4 c -1.657 0 -3 -1.343 -3 -3 V 10 c 0 -1.657 1.343 -3 3 -3 h 5 l 1.171 -2.342 C 10.679 3.642 11.718 3 12.854 3 h 6.292 c 1.136 0 2.175 0.642 2.683 1.658 L 23 7 h 5 C 29.657 7 31 8.343 31 10 z M 8 12 v -2 c 0 -0.552 -0.448 -1 -1 -1 H 4 c -0.552 0 -1 0.448 -1 1 v 2 c 0 0.552 0.448 1 1 1 h 3 C 7.552 13 8 12.552 8 12 z M 24 17 c 0 -4.418 -3.582 -8 -8 -8 s -8 3.582 -8 8 s 3.582 8 8 8 S 24 21.418 24 17 z" stroke-linecap="round" />
</g>
</svg>