<?xml version="1.0" encoding="UTF-8" standalone="no" ?>
<!DOCTYPE svg PUBLIC "-//W3C//DTD SVG 1.1//EN" "http://www.w3.org/Graphics/SVG/1.1/DTD/svg11.dtd">
<svg xmlns="http://www.w3.org/2000/svg" xmlns:xlink="http://www.w3.org/1999/xlink" version="1.1" width="640" height="480" viewBox="0 0 640 480" xml:space="preserve">
<desc>Created with Fabric.js 3.6.6</desc>
<defs>
</defs>
<g transform="matrix(1 0 0 1 421.56 231.91)" style=""  >
		<text xml:space="preserve" font-family="'Open Sans', sans-serif" font-size="18" font-style="normal" font-weight="normal" style="stroke: none; stroke-width: 1; stroke-dasharray: none; stroke-linecap: butt; stroke-dashoffset: 0; stroke-linejoin: miter; stroke-miterlimit: 4; fill: rgb(0,0,0); fill-rule: nonzero; opacity: 1; white-space: pre;" ><tspan x="-139.07" y="28.59" style="stroke-width: 1; font-family: 'Oswald', sans-serif; font-size: 91px; font-style: normal; font-weight: bold; fill: rgb(0,0,0); ">MUSICA</tspan></text>
</g>
<g transform="matrix(9.85 0 0 9.85 133.2 221.54)"  >
<path style="stroke: rgb(0,0,0); stroke-width: 1.5; stroke-dasharray: none; stroke-linecap: round; stroke-dashoffset: 0; stroke-linejoin: round; stroke-miterlimit: 4; fill: none; fill-rule: nonzero; opacity: 1;"  transform=" translate(-12, -11.5)" d="M 9 17.5 V 6 L 20 3 V 16.5 M 9 17.5 C 9 18.8807 7.88071 20 6.5 20 C 5.11929 20 4 18.8807 4 17.5 C 4 16.1193 5.11929 15 6.5 15 C 7.88071 15 9 16.1193 9 17.5 Z M 20 16.5 C 20 17.8807 18.8807 19 17.5 19 C 16.1193 19 15 17.8807 15 16.5 C 15 15.1193 16.1193 14 17.5 14 C 18.8807 14 20 15.1193 20 16.5 Z" stroke-linecap="round" />
</g>
</svg>